<svg xmlns="http://www.w3.org/2000/svg" xmlns:xlink="http://www.w3.org/1999/xlink" width="500" zoomAndPan="magnify" viewBox="0 0 375 74.999997" height="100" preserveAspectRatio="xMidYMid meet" version="1.0"><defs><g/></defs><g fill="#000000" fill-opacity="1"><g transform="translate(0.0000075, 53.783055)"><g><path d="M 6.789062 -23.164062 L 16.375 -23.164062 L 16.375 -4.792969 L 21.167969 -4.792969 L 21.167969 -23.164062 L 16.375 -23.164062 L 16.375 -27.957031 L 1.996094 -27.957031 L 1.996094 0 L 16.375 0 L 16.375 -4.792969 L 6.789062 -4.792969 Z M 6.789062 -23.164062 "/></g></g></g><g fill="#000000" fill-opacity="1"><g transform="translate(23.122823, 53.783055)"><g><path d="M 1.996094 -27.957031 L 1.996094 0 L 21.167969 0 L 21.167969 -4.792969 L 6.789062 -4.792969 L 6.789062 -11.582031 L 16.375 -11.582031 L 16.375 -16.375 L 6.789062 -16.375 L 6.789062 -23.164062 L 21.167969 -23.164062 L 21.167969 -27.957031 Z M 1.996094 -27.957031 "/></g></g></g><g fill="#000000" fill-opacity="1"><g transform="translate(46.285581, 53.783055)"><g><path d="M 11.582031 -4.792969 L 11.582031 -9.585938 L 6.789062 -9.585938 L 6.789062 -27.957031 L 1.996094 -27.957031 L 1.996094 -9.585938 L 6.789062 -9.585938 L 6.789062 -4.792969 L 11.582031 -4.792969 L 11.582031 0 L 16.375 0 L 16.375 -4.792969 Z M 21.167969 -27.957031 L 21.167969 -9.585938 L 25.960938 -9.585938 L 25.960938 -27.957031 Z M 16.375 -9.585938 L 16.375 -4.792969 L 21.167969 -4.792969 L 21.167969 -9.585938 Z M 16.375 -9.585938 "/></g></g></g><g fill="#000000" fill-opacity="1"><g transform="translate(74.200696, 53.783055)"><g><path d="M 1.996094 -27.957031 L 1.996094 0 L 21.167969 0 L 21.167969 -4.792969 L 6.789062 -4.792969 L 6.789062 -11.582031 L 16.375 -11.582031 L 16.375 -16.375 L 6.789062 -16.375 L 6.789062 -23.164062 L 21.167969 -23.164062 L 21.167969 -27.957031 Z M 1.996094 -27.957031 "/></g></g></g><g fill="#000000" fill-opacity="1"><g transform="translate(97.363454, 53.783055)"><g><path d="M 1.996094 -27.957031 L 1.996094 0 L 21.167969 0 L 21.167969 -4.792969 L 6.789062 -4.792969 L 6.789062 -27.957031 Z M 1.996094 -27.957031 "/></g></g></g><g fill="#000000" fill-opacity="1"><g transform="translate(120.48627, 53.783055)"><g><path d="M 6.789062 -23.164062 L 16.375 -23.164062 L 16.375 -4.792969 L 21.167969 -4.792969 L 21.167969 -23.164062 L 16.375 -23.164062 L 16.375 -27.957031 L 6.789062 -27.957031 Z M 6.789062 -23.164062 L 1.996094 -23.164062 L 1.996094 -4.792969 L 6.789062 -4.792969 L 6.789062 0 L 16.375 0 L 16.375 -4.792969 L 6.789062 -4.792969 Z M 6.789062 -23.164062 "/></g></g></g><g fill="#000000" fill-opacity="1"><g transform="translate(143.609085, 53.783055)"><g><path d="M 6.789062 -23.164062 L 16.375 -23.164062 L 16.375 -16.375 L 21.167969 -16.375 L 21.167969 -23.164062 L 16.375 -23.164062 L 16.375 -27.957031 L 1.996094 -27.957031 L 1.996094 0 L 6.789062 0 L 6.789062 -11.582031 L 16.375 -11.582031 L 16.375 -16.375 L 6.789062 -16.375 Z M 6.789062 -23.164062 "/></g></g></g><g fill="#000000" fill-opacity="1"><g transform="translate(166.731901, 53.783055)"><g><path d="M 1.996094 -27.957031 L 1.996094 0 L 21.167969 0 L 21.167969 -4.792969 L 6.789062 -4.792969 L 6.789062 -11.582031 L 16.375 -11.582031 L 16.375 -16.375 L 6.789062 -16.375 L 6.789062 -23.164062 L 21.167969 -23.164062 L 21.167969 -27.957031 Z M 1.996094 -27.957031 "/></g></g></g><g fill="#000000" fill-opacity="1"><g transform="translate(189.894659, 53.783055)"><g><path d="M 6.789062 -23.164062 L 16.375 -23.164062 L 16.375 -4.792969 L 21.167969 -4.792969 L 21.167969 -23.164062 L 16.375 -23.164062 L 16.375 -27.957031 L 1.996094 -27.957031 L 1.996094 0 L 16.375 0 L 16.375 -4.792969 L 6.789062 -4.792969 Z M 6.789062 -23.164062 "/></g></g></g><g fill="#000000" fill-opacity="1"><g transform="translate(213.017475, 53.783055)"><g/></g></g><g fill="#000000" fill-opacity="1"><g transform="translate(226.995004, 53.783055)"><g><path d="M 6.789062 -11.582031 L 16.375 -11.582031 L 16.375 -4.792969 L 21.167969 -4.792969 L 21.167969 -11.582031 L 16.375 -11.582031 L 16.375 -16.375 L 6.789062 -16.375 L 6.789062 -23.164062 L 16.375 -23.164062 L 16.375 -16.375 L 21.167969 -16.375 L 21.167969 -23.164062 L 16.375 -23.164062 L 16.375 -27.957031 L 1.996094 -27.957031 L 1.996094 0 L 16.375 0 L 16.375 -4.792969 L 6.789062 -4.792969 Z M 6.789062 -11.582031 "/></g></g></g><g fill="#000000" fill-opacity="1"><g transform="translate(250.117819, 53.783055)"><g><path d="M 1.996094 -27.957031 L 1.996094 -21.046875 L 6.789062 -21.046875 L 6.789062 -16.253906 L 11.582031 -16.253906 L 11.582031 0 L 16.375 0 L 16.375 -16.253906 L 11.582031 -16.253906 L 11.582031 -21.046875 L 6.789062 -21.046875 L 6.789062 -27.957031 Z M 25.960938 -21.046875 L 25.960938 -27.957031 L 21.167969 -27.957031 L 21.167969 -21.046875 Z M 21.167969 -16.253906 L 21.167969 -21.046875 L 16.375 -21.046875 L 16.375 -16.253906 Z M 21.167969 -16.253906 "/></g></g></g><g fill="#000000" fill-opacity="1"><g transform="translate(278.032934, 53.783055)"><g/></g></g><g fill="#000000" fill-opacity="1"><g transform="translate(292.010462, 53.783055)"><g><path d="M 11.582031 -9.585938 L 16.375 -9.585938 L 16.375 -4.792969 L 21.167969 -4.792969 L 21.167969 0 L 25.960938 0 L 25.960938 -27.957031 L 21.167969 -27.957031 L 21.167969 -9.585938 L 16.375 -9.585938 L 16.375 -18.210938 L 11.582031 -18.210938 Z M 6.789062 0 L 6.789062 -4.792969 L 11.582031 -4.792969 L 11.582031 -9.585938 L 6.789062 -9.585938 L 6.789062 -27.957031 L 1.996094 -27.957031 L 1.996094 0 Z M 6.789062 0 "/></g></g></g><g fill="#000000" fill-opacity="1"><g transform="translate(319.925577, 53.783055)"><g><path d="M 1.996094 0 L 6.789062 0 L 6.789062 -27.957031 L 1.996094 -27.957031 Z M 1.996094 0 "/></g></g></g><g fill="#000000" fill-opacity="1"><g transform="translate(328.711439, 53.783055)"><g><path d="M 1.996094 -27.957031 L 1.996094 0 L 21.167969 0 L 21.167969 -4.792969 L 6.789062 -4.792969 L 6.789062 -27.957031 Z M 1.996094 -27.957031 "/></g></g></g><g fill="#000000" fill-opacity="1"><g transform="translate(351.834254, 53.783055)"><g><path d="M 1.996094 -27.957031 L 1.996094 0 L 21.167969 0 L 21.167969 -4.792969 L 6.789062 -4.792969 L 6.789062 -27.957031 Z M 1.996094 -27.957031 "/></g></g></g></svg>